<?xml version="1.0" encoding="UTF-8"?>
<svg width="1620px" height="480px" viewBox="0 0 1620 480" xmlns="http://www.w3.org/2000/svg" xmlns:xlink="http://www.w3.org/1999/xlink" version="1.1">
 <!-- Generated by Pixelmator Pro 2.1.2 -->
 <path id="Путь" d="M1608.385 423.216 C1608.385 448.609 1587.817 469.176 1562.377 469.176 L56.748 469.176 C31.32 469.176 10.681 448.609 10.681 423.216 L10.681 56.7 C10.681 31.32 31.321 10.68 56.748 10.68 L1562.364 10.68 C1587.816 10.68 1608.373 31.32 1608.373 56.7 Z" fill="#ffffff" fill-opacity="1" stroke="none"/>
 <path id="Путь-1" d="M1562.377 479.868 L56.748 479.868 C25.464 479.868 -0 454.464 -0 423.216 L-0 56.712 C-0 25.44 25.464 0 56.748 0 L1562.364 0 C1593.612 0 1619.112 25.44 1619.112 56.712 L1619.112 423.216 C1619.136 454.464 1593.636 479.868 1562.377 479.868 Z" fill="#a6a6a6" fill-opacity="1" stroke="none"/>
 <path id="Путь-2" d="M1608.385 423.216 C1608.385 448.609 1587.817 469.176 1562.377 469.176 L56.748 469.176 C31.32 469.176 10.681 448.609 10.681 423.216 L10.681 56.7 C10.681 31.32 31.321 10.68 56.748 10.68 L1562.364 10.68 C1587.816 10.68 1608.373 31.32 1608.373 56.7 Z" fill="#000000" fill-opacity="1" stroke="none"/>
 <path id="Путь-3" d="M327.536 217.408 C327.188 178.732 359.204 159.916 360.668 159.04 342.536 132.604 314.433 128.992 304.557 128.704 280.953 126.22 258.057 142.828 246.033 142.828 233.769 142.828 215.253 128.944 195.297 129.352 169.617 129.748 145.594 144.616 132.417 167.704 105.226 214.78 125.505 283.96 151.558 322.012 164.589 340.66 179.818 361.456 199.749 360.724 219.249 359.932 226.533 348.304 250.065 348.304 273.38 348.304 280.221 360.724 300.548 360.256 321.477 359.932 334.652 341.536 347.229 322.732 362.289 301.384 368.336 280.336 368.577 279.256 368.096 279.088 327.944 263.752 327.536 217.408 Z M289.136 103.672 C299.623 90.556 306.8 72.712 304.808 54.604 289.627 55.276 270.644 65.104 259.711 77.932 250.039 89.236 241.399 107.764 243.631 125.188 260.684 126.46 278.192 116.584 289.136 103.672 Z" fill="#ffffff" fill-opacity="1" stroke="none"/>
 <defs>
  <linearGradient id="linear-gradient" gradientUnits="userSpaceOnUse" x1="1187.529" y1="481.172" x2="1187.529" y2="48.62">
   <stop offset="0" stop-color="#1a1a1a" stop-opacity="0.1"/>
   <stop offset="0.123" stop-color="#212121" stop-opacity="0.151"/>
   <stop offset="0.308" stop-color="#353535" stop-opacity="0.227"/>
   <stop offset="0.532" stop-color="#575757" stop-opacity="0.318"/>
   <stop offset="0.783" stop-color="#858585" stop-opacity="0.421"/>
   <stop offset="1" stop-color="#b3b3b3" stop-opacity="0.51"/>
  </linearGradient>
 </defs>
 <path id="Путь-4" d="M1562.377 0 L755.916 0 1071.793 479.868 1562.377 479.868 C1593.625 479.868 1619.125 454.464 1619.125 423.18 L1619.125 56.712 C1619.136 25.44 1593.636 0 1562.377 0 Z" fill-opacity="1" fill="url(#linear-gradient)" stroke="none"/>
 <g id="group">
  <path id="Путь-5" d="M624.98 298.048 L597.728 298.048 582.8 251.14 530.911 251.14 516.691 298.048 490.16 298.048 541.58 138.352 573.332 138.352 Z M578.301 231.46 L564.801 189.76 C563.373 185.5 560.685 175.468 556.748 159.676 L556.269 159.676 C554.685 166.468 552.153 176.5 548.685 189.76 L535.413 231.46 Z M756.957 239.056 C756.957 258.64 751.641 274.12 740.996 285.485 731.469 295.6 719.625 300.653 705.5 300.653 690.248 300.653 679.28 295.216 672.62 284.321 L672.62 344.741 647.036 344.741 647.036 220.744 C647.036 208.443 646.713 195.832 646.089 182.896 L668.589 182.896 670.017 201.148 670.496 201.148 C679.028 187.396 691.976 180.519 709.352 180.519 722.936 180.519 734.276 185.883 743.348 196.623 752.408 207.388 756.957 221.524 756.957 239.056 Z M730.892 239.992 C730.892 228.784 728.372 219.544 723.308 212.26 717.776 204.688 710.348 200.897 701.036 200.897 694.724 200.897 688.988 203.008 683.864 207.172 678.728 211.372 675.368 216.856 673.797 223.648 673.005 226.816 672.609 229.396 672.609 231.437 L672.609 250.648 C672.609 259.012 675.177 266.081 680.313 271.865 685.449 277.625 692.121 280.516 700.329 280.516 709.966 280.516 717.466 276.785 722.829 269.38 728.204 261.952 730.892 252.16 730.892 239.992 Z M889.4 239.056 C889.4 258.64 884.084 274.12 873.44 285.485 863.9 295.6 852.068 300.653 837.932 300.653 822.68 300.653 811.712 295.216 805.052 284.321 L805.052 344.741 779.468 344.741 779.468 220.744 C779.468 208.443 779.144 195.832 778.52 182.896 L801.02 182.896 802.448 201.148 802.928 201.148 C811.448 187.396 824.396 180.519 841.783 180.519 855.355 180.519 866.695 185.883 875.792 196.623 884.841 207.388 889.4 221.524 889.4 239.056 Z M863.324 239.992 C863.324 228.784 860.793 219.544 855.728 212.26 850.196 204.688 842.792 200.897 833.48 200.897 827.168 200.897 821.432 203.008 816.284 207.172 811.148 211.372 807.801 216.856 806.228 223.648 805.448 226.816 805.028 229.396 805.028 231.437 L805.028 250.648 C805.028 259.012 807.608 266.081 812.72 271.865 817.856 277.613 824.528 280.516 832.76 280.516 842.407 280.516 849.907 276.785 855.26 269.38 860.636 261.952 863.324 252.16 863.324 239.992 Z M1037.48 253.252 C1037.48 266.848 1032.728 277.9 1023.285 286.432 1012.892 295.744 998.385 300.412 979.784 300.412 962.6 300.412 948.824 297.1 938.432 290.464 L944.348 269.14 C955.568 275.788 967.892 279.1 981.308 279.1 990.956 279.1 998.456 276.916 1003.808 272.584 1009.171 268.24 1011.884 262.432 1011.884 255.184 1011.884 248.693 1009.64 243.256 1005.236 238.829 1000.808 234.413 993.488 230.297 983.205 226.517 955.244 216.089 941.252 200.837 941.252 180.773 941.252 167.669 946.196 156.941 956.061 148.553 965.925 140.177 979.005 135.99 995.277 135.99 1009.809 135.99 1021.917 138.522 1031.529 143.574 L1025.109 164.429 C1016.061 159.533 1005.848 157.085 994.424 157.085 985.401 157.085 978.32 159.305 973.256 163.721 968.996 167.669 966.836 172.482 966.836 178.193 966.836 184.494 969.297 189.726 974.192 193.83 978.44 197.609 986.192 201.726 997.4 206.142 1011.152 211.686 1021.255 218.142 1027.724 225.558 1034.24 232.972 1037.48 242.224 1037.48 253.252 Z M1122.285 202.096 L1094.084 202.096 1094.084 258.004 C1094.084 272.224 1099.053 279.316 1109.013 279.316 1113.584 279.316 1117.377 278.931 1120.377 278.128 L1121.084 297.556 C1116.045 299.441 1109.408 300.388 1101.188 300.388 1091.084 300.388 1083.188 297.304 1077.488 291.136 1071.812 284.968 1068.957 274.636 1068.957 260.092 L1068.957 202.048 1052.156 202.048 1052.156 182.848 1068.957 182.848 1068.957 161.764 1094.084 154.18 1094.084 182.848 1122.285 182.848 Z M1249.268 239.524 C1249.268 257.223 1244.205 271.755 1234.1 283.12 1223.528 294.82 1209.464 300.652 1191.932 300.652 1175.012 300.652 1161.56 295.048 1151.528 283.852 1141.496 272.631 1136.48 258.496 1136.48 241.444 1136.48 223.599 1141.664 208.984 1151.996 197.62 1162.352 186.244 1176.297 180.557 1193.828 180.557 1210.724 180.557 1224.297 186.172 1234.568 197.38 1244.385 208.252 1249.268 222.292 1249.268 239.524 Z M1222.748 240.112 C1222.748 229.563 1220.469 220.515 1215.896 212.943 1210.532 203.799 1202.852 199.228 1192.904 199.228 1182.656 199.228 1174.797 203.799 1169.444 212.943 1164.86 220.515 1162.58 229.719 1162.58 240.591 1162.58 251.152 1164.86 260.223 1169.444 267.772 1174.976 276.916 1182.692 281.488 1192.688 281.488 1202.468 281.488 1210.136 276.82 1215.68 267.544 1220.385 259.792 1222.748 250.684 1222.748 240.112 Z M1332.465 205.396 C1329.933 204.927 1327.221 204.687 1324.401 204.687 1315.401 204.687 1308.441 208.072 1303.546 214.887 1299.298 220.887 1297.161 228.471 1297.161 237.627 L1297.161 298.047 1271.577 298.047 1271.577 219.16 C1271.577 205.9 1271.325 193.804 1270.833 182.908 L1293.118 182.908 1294.054 204.939 1294.762 204.939 C1297.474 197.368 1301.722 191.259 1307.554 186.687 1313.254 182.572 1319.409 180.519 1326.046 180.519 1328.409 180.519 1330.546 180.687 1332.442 180.988 Z M1446.885 235.024 C1446.885 239.608 1446.584 243.471 1445.948 246.628 L1369.196 246.628 C1369.484 258.004 1373.205 266.716 1380.332 272.716 1386.801 278.069 1395.164 280.756 1405.436 280.756 1416.8 280.756 1427.167 278.956 1436.492 275.32 L1440.5 293.068 C1429.604 297.82 1416.74 300.184 1401.896 300.184 1384.041 300.184 1370.024 294.927 1359.824 284.44 1349.648 273.94 1344.549 259.828 1344.549 242.152 1344.549 224.799 1349.289 210.34 1358.78 198.808 1368.717 186.496 1382.144 180.339 1399.041 180.339 1415.637 180.339 1428.2 186.495 1436.732 198.808 1443.488 208.564 1446.885 220.66 1446.885 235.024 Z M1422.488 228.388 C1422.668 220.792 1420.988 214.252 1417.52 208.72 1413.091 201.592 1406.276 198.04 1397.144 198.04 1388.78 198.04 1381.964 201.508 1376.78 208.468 1372.52 214 1369.988 220.648 1369.209 228.364 Z" fill="#ffffff" fill-opacity="1" stroke="none"/>
 </g>
</svg>
